<svg width="64" height="64" viewBox="0 0 64 64" fill="none" xmlns="http://www.w3.org/2000/svg">
<path d="M8.93427 30.993C11.0941 18.6502 23.8839 13.964 34.9427 13.7976C35.3194 13.7919 35.6581 13.5781 35.8566 13.2578C38.5502 8.91045 45.9326 7.0623 50.0728 8.45817C50.526 8.61094 50.7431 9.10288 50.6179 9.5644L48.3942 17.7658C48.2859 18.1656 48.437 18.5906 48.7671 18.8408C52.8337 21.9229 54.8 24.7344 56.6672 28.456C56.8386 28.7977 57.1869 29.0165 57.5691 29.0165H59C59.5523 29.0165 60 29.4642 60 30.0165V37.6514C60 37.7162 59.9941 37.7801 59.9807 37.8435C58.9894 42.5228 52.7082 47.5517 48.0968 48.7219C47.4431 48.8878 47.0167 49.5889 47.2702 50.2139L50.2754 57.6242C50.542 58.2817 50.0582 59 49.3487 59H41.1246C40.8232 59 40.5379 58.864 40.348 58.6299L36.8742 54.3471C36.6844 54.113 36.399 53.977 36.0976 53.977H28.9024C28.601 53.977 28.3156 54.113 28.1258 54.3471L24.652 58.6299C24.4621 58.864 24.1801 59 23.8787 59H15.4515C14.7996 59 14.3222 58.3862 14.4824 57.7543L16.0288 51.6533C16.1335 51.2402 15.9627 50.8083 15.6169 50.5594C10.0609 46.5614 9.09823 40.692 8.93148 38.7872C8.92971 38.767 8.91276 38.7534 8.89254 38.7534C6.75859 38.7534 5 37.0235 5 34.8896C5 32.7556 6.76157 31.0257 8.89551 31.0257C8.91446 31.0257 8.93101 31.0116 8.93427 30.993Z" fill="white" stroke="#33363D" stroke-width="2" stroke-linecap="round"/>
<rect x="8" y="6" width="20" height="20" rx="10" fill="url(#paint0_linear_2674_2704)" stroke="#33363D" stroke-width="2"/>
<rect x="40" y="28" width="4" height="4" rx="2" fill="#33363D"/>
<path d="M25 54H38.5" stroke="#33363D" stroke-width="2" stroke-linecap="round"/>
<defs>
<linearGradient id="paint0_linear_2674_2704" x1="8" y1="6" x2="28" y2="26" gradientUnits="userSpaceOnUse">
<stop stop-color="#D8E5FD"/>
<stop offset="1" stop-color="#4C87F6"/>
</linearGradient>
</defs>
</svg>
