<svg width="48" height="48" viewBox="0 0 48 48" fill="none" xmlns="http://www.w3.org/2000/svg">
<path d="M0 24C0 10.7452 10.7452 0 24 0C37.2548 0 48 10.7452 48 24C48 37.2548 37.2548 48 24 48C10.7452 48 0 37.2548 0 24Z" fill="url(#paint0_radial_1141_37902)"/>
<g clip-path="url(#clip0_1141_37902)">
<path d="M19.0302 12.0829C17.7534 12.1432 16.8814 12.3469 16.1192 12.6465C15.3303 12.9539 14.6616 13.3665 13.9964 14.0342C13.3311 14.7018 12.9214 15.371 12.6161 16.161C12.3207 16.925 12.1205 17.7976 12.0641 19.0751C12.0077 20.3527 11.9952 20.7633 12.0015 24.022C12.0077 27.2808 12.0221 27.6892 12.084 28.9694C12.145 30.246 12.348 31.1177 12.6475 31.8801C12.9555 32.669 13.3676 33.3374 14.0355 34.0029C14.7034 34.6685 15.3721 35.0772 16.1641 35.383C16.9273 35.6779 17.8002 35.879 19.0775 35.935C20.3547 35.9909 20.7659 36.0038 24.0237 35.9976C27.2815 35.9914 27.6916 35.977 28.9715 35.9162C30.2515 35.8555 31.1186 35.651 31.8813 35.353C32.6702 35.0443 33.3391 34.6329 34.0042 33.9648C34.6692 33.2966 35.0787 32.627 35.3837 31.8365C35.6794 31.0733 35.8803 30.2004 35.9357 28.924C35.9916 27.6432 36.0048 27.2342 35.9986 23.976C35.9923 20.7177 35.9777 20.3092 35.917 19.0295C35.8563 17.7498 35.653 16.8808 35.3537 16.1178C35.0453 15.329 34.6337 14.661 33.966 13.995C33.2983 13.329 32.6282 12.9198 31.8379 12.6155C31.0742 12.3201 30.2018 12.1187 28.9245 12.0635C27.6472 12.0083 27.2361 11.9941 23.9771 12.0004C20.7181 12.0066 20.3101 12.0205 19.0302 12.0829ZM19.1703 33.7761C18.0003 33.7253 17.365 33.5309 16.9417 33.3681C16.381 33.1521 15.9817 32.891 15.5597 32.4732C15.1378 32.0553 14.8786 31.6545 14.6597 31.0951C14.4953 30.6717 14.2973 30.0372 14.2426 28.8672C14.1831 27.6026 14.1706 27.2229 14.1636 24.0192C14.1567 20.8154 14.1689 20.4362 14.2244 19.1711C14.2743 18.0021 14.4699 17.3661 14.6324 16.943C14.8484 16.3816 15.1085 15.983 15.5273 15.5613C15.9461 15.1396 16.3457 14.8799 16.9057 14.661C17.3286 14.4959 17.9631 14.2996 19.1327 14.2439C20.3982 14.1839 20.7774 14.1719 23.9807 14.165C27.184 14.158 27.5642 14.17 28.8302 14.2257C29.9992 14.2766 30.6355 14.4702 31.0581 14.6337C31.619 14.8497 32.0181 15.1091 32.4398 15.5286C32.8615 15.9482 33.1214 16.3463 33.3403 16.9074C33.5057 17.3291 33.702 17.9634 33.7572 19.1337C33.8174 20.3992 33.8311 20.7787 33.8369 23.9817C33.8426 27.1848 33.8314 27.5652 33.7759 28.8297C33.7248 29.9997 33.5309 30.6353 33.3679 31.0591C33.1519 31.6195 32.8915 32.0191 32.4725 32.4405C32.0534 32.862 31.6543 33.1217 31.0941 33.3405C30.6717 33.5054 30.0364 33.7022 28.8679 33.7579C27.6023 33.8174 27.2231 33.8299 24.0186 33.8369C20.8141 33.8438 20.4361 33.8309 19.1706 33.7761M28.9531 17.5854C28.9535 17.8703 29.0385 18.1486 29.1971 18.3851C29.3558 18.6217 29.581 18.8059 29.8443 18.9144C30.1077 19.0229 30.3973 19.0509 30.6765 18.9949C30.9558 18.9388 31.2122 18.8012 31.4132 18.5994C31.6142 18.3976 31.7509 18.1408 31.806 17.8613C31.861 17.5819 31.8319 17.2924 31.7224 17.0294C31.6129 16.7665 31.4279 16.5419 31.1908 16.3842C30.9536 16.2264 30.675 16.1425 30.3902 16.143C30.0084 16.1438 29.6425 16.2962 29.373 16.5667C29.1035 16.8372 28.9524 17.2036 28.9531 17.5854ZM17.8386 24.011C17.8453 27.4142 20.6091 30.1668 24.0117 30.1603C27.4142 30.1538 30.1687 27.3902 30.1622 23.987C30.1557 20.5838 27.3911 17.8305 23.9881 17.8372C20.5851 17.8439 17.8321 20.6083 17.8386 24.011ZM20 24.0067C19.9985 23.2155 20.2315 22.4417 20.6698 21.783C21.108 21.1243 21.7317 20.6104 22.462 20.3062C23.1924 20.002 23.9965 19.9212 24.7727 20.074C25.549 20.2268 26.2625 20.6064 26.823 21.1647C27.3836 21.723 27.766 22.435 27.9218 23.2106C28.0777 23.9862 28.0001 24.7907 27.6988 25.5222C27.3975 26.2537 26.886 26.8795 26.2291 27.3203C25.5721 27.7611 24.7992 27.9973 24.0081 27.9988C23.4827 27.9999 22.9623 27.8976 22.4766 27.6975C21.9909 27.4975 21.5493 27.2037 21.1771 26.833C20.8049 26.4623 20.5094 26.0219 20.3074 25.5369C20.1054 25.052 20.001 24.532 20 24.0067Z" fill="white"/>
</g>
<defs>
<radialGradient id="paint0_radial_1141_37902" cx="0" cy="0" r="1" gradientUnits="userSpaceOnUse" gradientTransform="translate(1.10517e-07 45.5) rotate(-43.4684) scale(66.1381)">
<stop offset="0.1" stop-color="#FFBF40"/>
<stop offset="0.5" stop-color="#FF4280"/>
<stop offset="0.9" stop-color="#8314BF"/>
</radialGradient>
<clipPath id="clip0_1141_37902">
<rect width="28.8" height="28.8" fill="white" transform="translate(9.6001 9.59961)"/>
</clipPath>
</defs>
</svg>
