<svg width="24" height="24" viewBox="0 0 24 24" fill="none" xmlns="http://www.w3.org/2000/svg">
<g clip-path="url(#clip0_2857_5403)">
<path d="M13.8107 8.46744C13.8107 8.46744 12.1697 8.46744 10.6802 9.94327V4H7V19.6089H10.7195V18.3872C10.7195 18.3872 11.5975 20 13.8107 20C13.8107 20 19 19.8059 19 14.1738C19 14.1738 18.8093 8.46744 13.8107 8.46744ZM13 16.7058C11.6928 16.7058 10.6325 15.6268 10.6325 14.2965C10.6325 12.9663 11.6928 11.8901 13 11.8901C14.3072 11.8901 15.3647 12.9691 15.3647 14.2965C15.3675 15.6268 14.3072 16.7058 13 16.7058Z" fill="white"/>
</g>
<defs>
<clipPath id="clip0_2857_5403">
<rect width="24" height="24" fill="white"/>
</clipPath>
</defs>
</svg>
