<svg width="48" height="48" viewBox="0 0 48 48" fill="none" xmlns="http://www.w3.org/2000/svg">
<path d="M0 24C0 10.7452 10.7452 0 24 0C37.2548 0 48 10.7452 48 24C48 37.2548 37.2548 48 24 48C10.7452 48 0 37.2548 0 24Z" fill="#8A949E"/>
<g clip-path="url(#clip0_2145_58088)">
<path d="M28.1969 25.2005L28.8052 21.7253H25.0018V19.4713C25.0018 18.52 25.5321 17.5938 27.2371 17.5938H28.9667V14.635C28.9667 14.635 27.3967 14.4001 25.897 14.4001C22.7627 14.4001 20.7156 16.0644 20.7156 19.0764V21.7253H17.2334V25.2005H20.7156V33.6001H25.0018V25.2005H28.1969Z" fill="white"/>
</g>
<defs>
<clipPath id="clip0_2145_58088">
<rect width="28.8" height="28.8" fill="white" transform="translate(9.6001 9.6001)"/>
</clipPath>
</defs>
</svg>
