<svg width="40" height="40" viewBox="0 0 40 40" fill="none" xmlns="http://www.w3.org/2000/svg">
<path d="M31 26V14C31 7.92487 26.0751 3 20 3C13.9249 3 9 7.92487 9 14V26C9 32.0751 13.9249 37 20 37V39C12.9326 39 7.18208 33.3604 7.00391 26.3359L7 26V14C7 6.8203 12.8203 1 20 1C27.1797 1 33 6.8203 33 14V26L32.9961 26.3359C32.8179 33.3604 27.0674 39 20 39V37C26.0751 37 31 32.0751 31 26Z" fill="white"/>
<path d="M19 29V24C19 23.4477 19.4477 23 20 23C20.5523 23 21 23.4477 21 24V29C21 29.5523 20.5523 30 20 30C19.4477 30 19 29.5523 19 29Z" fill="white"/>
</svg>
