<svg width="64" height="64" viewBox="0 0 64 64" fill="none" xmlns="http://www.w3.org/2000/svg">
<path d="M48.5 54V58H15.5V53.5L6 40.5V19.5C6 17.0147 8.01472 15 10.5 15C12.9853 15 15 17.0147 15 19.5V30.5L18.5 31L32.5 44L46 30.5L49.5 31V19.25C49.5 16.9028 51.4028 15 53.75 15C56.0972 15 58 16.9028 58 19.25V40.5L48.5 54Z" fill="white"/>
<path d="M32 58V44.4941C32 44.3814 32.0443 44.2732 32.1235 44.1929L44.4759 31.6569C46.0879 30.0209 48.7269 30.0209 50.3389 31.6569C51.9176 33.259 51.9176 35.8319 50.3389 37.434L43.5556 44.3182M48.3704 58V53.9384C48.3704 53.7203 48.4417 53.5082 48.5734 53.3344L56.1458 43.344C57.3489 41.7568 58 39.8198 58 37.8282V19.3333C58 16.9401 56.0599 15 53.6667 15C51.2734 15 49.3333 16.9401 49.3333 19.3333V30.6364" stroke="#33363D" stroke-width="2" stroke-linecap="round"/>
<path d="M32 58V44.4941C32 44.3814 31.9557 44.2732 31.8765 44.1929L19.5241 31.6569C17.9121 30.0209 15.2731 30.0209 13.6611 31.6569C12.0824 33.259 12.0824 35.8319 13.6611 37.434L20.4444 44.3182M15.6296 58V53.9384C15.6296 53.7203 15.5583 53.5082 15.4266 53.3344L7.85418 43.344C6.65114 41.7568 6 39.8198 6 37.8282V19.3333C6 16.9401 7.9401 15 10.3333 15C12.7266 15 14.6667 16.9401 14.6667 19.3333V30.6364" stroke="#33363D" stroke-width="2" stroke-linecap="round"/>
<path d="M21 4.90039H43C43.6075 4.90039 44.0996 5.39249 44.0996 6V14C44.0996 16.6119 42.5996 19.7948 40.2568 22.9121C37.9361 26 34.8926 28.8856 32.0342 30.8867C32.0134 30.9013 31.9866 30.9013 31.9658 30.8867C29.1074 28.8856 26.0639 26 23.7432 22.9121C21.4004 19.7948 19.9004 16.6119 19.9004 14V5.99902C19.9006 5.39203 20.3923 4.90039 21 4.90039Z" fill="url(#paint0_linear_2674_5451)" stroke="#33363D" stroke-width="1.8"/>
<path d="M28 15L30.2929 17.2929C30.6834 17.6834 31.3166 17.6834 31.7071 17.2929L37 12" stroke="#33363D" stroke-width="2" stroke-linecap="round"/>
<defs>
<linearGradient id="paint0_linear_2674_5451" x1="19" y1="4" x2="46.9233" y2="29.9288" gradientUnits="userSpaceOnUse">
<stop stop-color="#D8E5FD"/>
<stop offset="1" stop-color="#4C87F6"/>
</linearGradient>
</defs>
</svg>
