<svg width="48" height="48" viewBox="0 0 48 48" fill="none" xmlns="http://www.w3.org/2000/svg">
<path d="M0 24C0 10.7452 10.7452 0 24 0C37.2548 0 48 10.7452 48 24C48 37.2548 37.2548 48 24 48C10.7452 48 0 37.2548 0 24Z" fill="#016AE1"/>
<g clip-path="url(#clip0_1141_37892)">
<path d="M28.1969 25.1997L28.8052 21.7246H25.0018V19.4705C25.0018 18.5193 25.5321 17.593 27.2371 17.593H28.9667V14.6343C28.9667 14.6343 27.3967 14.3994 25.897 14.3994C22.7627 14.3994 20.7156 16.0637 20.7156 19.0757V21.7246H17.2334V25.1997H20.7156V33.5994H25.0018V25.1997H28.1969Z" fill="white"/>
</g>
<defs>
<clipPath id="clip0_1141_37892">
<rect width="28.8" height="28.8" fill="white" transform="translate(9.6001 9.59961)"/>
</clipPath>
</defs>
</svg>
