<svg width="48" height="48" viewBox="0 0 48 48" fill="none" xmlns="http://www.w3.org/2000/svg">
<path d="M0 24C0 10.7452 10.7452 0 24 0C37.2548 0 48 10.7452 48 24C48 37.2548 37.2548 48 24 48C10.7452 48 0 37.2548 0 24Z" fill="#8A949E"/>
<g clip-path="url(#clip0_2145_58087)">
<path d="M26.1728 19.7611C26.1728 19.7611 24.2036 19.7611 22.4163 21.5321V14.4001H18V33.1309H22.4634V31.6647C22.4634 31.6647 23.517 33.6001 26.1728 33.6001C26.1728 33.6001 32.4 33.3672 32.4 26.6087C32.4 26.6087 32.1711 19.7611 26.1728 19.7611ZM25.2 29.6471C23.6314 29.6471 22.359 28.3523 22.359 26.756C22.359 25.1597 23.6314 23.8683 25.2 23.8683C26.7686 23.8683 28.0376 25.1631 28.0376 26.756C28.041 28.3523 26.7686 29.6471 25.2 29.6471Z" fill="white"/>
</g>
<defs>
<clipPath id="clip0_2145_58087">
<rect width="28.8" height="28.8" fill="white" transform="translate(9.6001 9.6001)"/>
</clipPath>
</defs>
</svg>
