<svg width="64" height="64" viewBox="0 0 64 64" fill="none" xmlns="http://www.w3.org/2000/svg">
<path d="M30.1968 4.31236C30.6404 3.89591 31.3575 3.89592 31.801 4.31238C38.0858 10.2137 46.6189 13.6198 55.5065 13.62C55.7507 13.6199 56 13.7821 56 14.0152V27.5549C55.9999 31.8551 55.1338 36.1162 53.4484 40.1044C50.203 47.784 44.0961 54.0482 36.3027 57.6912L31.6867 59.8483C31.2535 60.0506 30.7465 60.0506 30.3133 59.8483L25.6973 57.6912C17.9039 54.0482 11.797 47.784 8.55158 40.1044C6.86622 36.1162 6.00007 31.8551 6 27.5549V14.0142C6 13.7816 6.24876 13.6198 6.49249 13.62C15.3799 13.62 23.9121 10.2136 30.1968 4.31236Z" fill="white" stroke="#33363D" stroke-width="2" stroke-linecap="round"/>
<path d="M30.8741 12.326C31.338 11.8914 32.0726 11.8914 32.5365 12.3259C36.7143 16.2396 42.1453 18.6164 47.9085 19.0311C48.5155 19.0748 49 19.5642 49 20.1653V28.5143C49 31.712 48.3509 34.8776 47.0906 37.8232C44.8112 43.15 40.6542 47.4807 35.3901 50.013L31.4922 51.888C31.1815 52.0374 30.8185 52.0374 30.5078 51.888L26.6099 50.013C21.346 47.4807 17.1887 43.1499 14.9094 37.8232C13.6491 34.8777 13 31.7119 13 28.5143V19.6241C13 19.3086 13.3684 19.0978 13.6877 19.0979C20.1181 19.0978 26.2601 16.6482 30.8741 12.326Z" fill="url(#paint0_linear_2674_7092)" stroke="url(#paint1_linear_2674_7092)" stroke-width="2" stroke-linecap="round"/>
<path d="M25 31.5L28.613 35.252C29.0064 35.6605 29.6603 35.6605 30.0537 35.252L38 27" stroke="#33363D" stroke-width="2" stroke-linecap="round"/>
<defs>
<linearGradient id="paint0_linear_2674_7092" x1="13" y1="12" x2="52.779" y2="47.8011" gradientUnits="userSpaceOnUse">
<stop stop-color="#D8E5FD"/>
<stop offset="1" stop-color="#4C87F6"/>
</linearGradient>
<linearGradient id="paint1_linear_2674_7092" x1="13" y1="12" x2="52.779" y2="47.8011" gradientUnits="userSpaceOnUse">
<stop stop-color="#D8E5FD"/>
<stop offset="1" stop-color="#4C87F6"/>
</linearGradient>
</defs>
</svg>
