<svg width="48" height="48" viewBox="0 0 48 48" fill="none" xmlns="http://www.w3.org/2000/svg">
<path d="M0 24C0 10.7452 10.7452 0 24 0C37.2548 0 48 10.7452 48 24C48 37.2548 37.2548 48 24 48C10.7452 48 0 37.2548 0 24Z" fill="#2FB44A"/>
<g clip-path="url(#clip0_2145_62232)">
<path d="M26.1729 19.7611C26.1729 19.7611 24.2037 19.7611 22.4164 21.5321V14.4001H18.0001V33.1309H22.4635V31.6647C22.4635 31.6647 23.5171 33.6001 26.1729 33.6001C26.1729 33.6001 32.4001 33.3672 32.4001 26.6087C32.4001 26.6087 32.1712 19.7611 26.1729 19.7611ZM25.2001 29.6471C23.6315 29.6471 22.3591 28.3523 22.3591 26.756C22.3591 25.1597 23.6315 23.8683 25.2001 23.8683C26.7687 23.8683 28.0377 25.1631 28.0377 26.756C28.041 28.3523 26.7687 29.6471 25.2001 29.6471Z" fill="white"/>
</g>
<defs>
<clipPath id="clip0_2145_62232">
<rect width="28.8" height="28.8" fill="white" transform="translate(9.6001 9.6001)"/>
</clipPath>
</defs>
</svg>
