<svg width="48" height="48" viewBox="0 0 48 48" fill="none" xmlns="http://www.w3.org/2000/svg">
<path d="M0 24C0 10.7452 10.7452 0 24 0C37.2548 0 48 10.7452 48 24C48 37.2548 37.2548 48 24 48C10.7452 48 0 37.2548 0 24Z" fill="#8A949E"/>
<g clip-path="url(#clip0_2145_58089)">
<path d="M19.0302 12.0838C17.7534 12.144 16.8814 12.3478 16.1192 12.6473C15.3303 12.9548 14.6616 13.3673 13.9964 14.035C13.3311 14.7027 12.9214 15.3718 12.6161 16.1619C12.3207 16.9258 12.1205 17.7985 12.0641 19.076C12.0077 20.3535 11.9952 20.7642 12.0015 24.0229C12.0077 27.2816 12.0221 27.6901 12.084 28.9703C12.145 30.2468 12.348 31.1185 12.6475 31.881C12.9555 32.6699 13.3676 33.3383 14.0355 34.0038C14.7034 34.6693 15.3721 35.078 16.1641 35.3838C16.9273 35.6788 17.8002 35.8799 19.0775 35.9358C20.3547 35.9917 20.7659 36.0047 24.0237 35.9984C27.2815 35.9922 27.6916 35.9778 28.9715 35.9171C30.2515 35.8564 31.1186 35.6519 31.8813 35.3538C32.6702 35.0452 33.3391 34.6338 34.0042 33.9656C34.6692 33.2975 35.0787 32.6279 35.3837 31.8373C35.6794 31.0741 35.8803 30.2012 35.9357 28.9249C35.9916 27.644 36.0048 27.2351 35.9986 23.9768C35.9923 20.7186 35.9777 20.3101 35.917 19.0304C35.8563 17.7507 35.653 16.8817 35.3537 16.1187C35.0453 15.3298 34.6337 14.6619 33.966 13.9959C33.2983 13.3299 32.6282 12.9207 31.8379 12.6164C31.0742 12.3209 30.2018 12.1196 28.9245 12.0644C27.6472 12.0092 27.2361 11.995 23.9771 12.0012C20.7181 12.0075 20.3101 12.0214 19.0302 12.0838ZM19.1703 33.777C18.0003 33.7261 17.365 33.5317 16.9417 33.369C16.381 33.153 15.9817 32.8919 15.5597 32.474C15.1378 32.0562 14.8786 31.6554 14.6597 31.0959C14.4953 30.6726 14.2973 30.038 14.2426 28.868C14.1831 27.6035 14.1706 27.2238 14.1636 24.02C14.1567 20.8162 14.1689 20.437 14.2244 19.172C14.2743 18.0029 14.4699 17.3669 14.6324 16.9438C14.8484 16.3825 15.1085 15.9838 15.5273 15.5621C15.9461 15.1405 16.3457 14.8808 16.9057 14.6619C17.3286 14.4968 17.9631 14.3005 19.1327 14.2448C20.3982 14.1848 20.7774 14.1728 23.9807 14.1658C27.184 14.1589 27.5642 14.1709 28.8302 14.2265C29.9992 14.2774 30.6355 14.4711 31.0581 14.6345C31.619 14.8505 32.0181 15.11 32.4398 15.5295C32.8615 15.949 33.1214 16.3472 33.3403 16.9083C33.5057 17.33 33.702 17.9643 33.7572 19.1345C33.8174 20.4001 33.8311 20.7795 33.8369 23.9826C33.8426 27.1856 33.8314 27.566 33.7759 28.8306C33.7248 30.0006 33.5309 30.6361 33.3679 31.0599C33.1519 31.6204 32.8915 32.02 32.4725 32.4414C32.0534 32.8628 31.6543 33.1225 31.0941 33.3414C30.6717 33.5063 30.0364 33.7031 28.8679 33.7588C27.6023 33.8183 27.2231 33.8308 24.0186 33.8377C20.8141 33.8447 20.4361 33.8317 19.1706 33.777M28.9531 17.5863C28.9535 17.8711 29.0385 18.1494 29.1971 18.386C29.3558 18.6225 29.581 18.8067 29.8443 18.9153C30.1077 19.0238 30.3973 19.0518 30.6765 18.9957C30.9558 18.9397 31.2122 18.802 31.4132 18.6003C31.6142 18.3985 31.7509 18.1416 31.806 17.8622C31.861 17.5827 31.8319 17.2932 31.7224 17.0303C31.6129 16.7673 31.4279 16.5428 31.1908 16.385C30.9536 16.2272 30.675 16.1433 30.3902 16.1439C30.0084 16.1447 29.6425 16.297 29.373 16.5675C29.1035 16.838 28.9524 17.2045 28.9531 17.5863ZM17.8386 24.0118C17.8453 27.4151 20.6091 30.1676 24.0117 30.1611C27.4142 30.1547 30.1687 27.3911 30.1622 23.9878C30.1557 20.5846 27.3911 17.8313 23.9881 17.8381C20.5851 17.8448 17.8321 20.6091 17.8386 24.0118ZM20 24.0075C19.9985 23.2164 20.2315 22.4425 20.6698 21.7839C21.108 21.1252 21.7317 20.6112 22.462 20.307C23.1924 20.0028 23.9965 19.922 24.7727 20.0748C25.549 20.2277 26.2625 20.6072 26.823 21.1655C27.3836 21.7238 27.766 22.4358 27.9218 23.2115C28.0777 23.9871 28.0001 24.7915 27.6988 25.5231C27.3975 26.2546 26.886 26.8803 26.2291 27.3212C25.5721 27.762 24.7992 27.9981 24.0081 27.9997C23.4827 28.0008 22.9623 27.8984 22.4766 27.6984C21.9909 27.4983 21.5493 27.2046 21.1771 26.8338C20.8049 26.4631 20.5094 26.0227 20.3074 25.5378C20.1054 25.0528 20.001 24.5328 20 24.0075Z" fill="white"/>
</g>
<defs>
<clipPath id="clip0_2145_58089">
<rect width="28.8" height="28.8" fill="white" transform="translate(9.6001 9.6001)"/>
</clipPath>
</defs>
</svg>
