<svg width="48" height="48" viewBox="0 0 48 48" fill="none" xmlns="http://www.w3.org/2000/svg">
<path d="M0 24C0 10.7452 10.7452 0 24 0V0C37.2548 0 48 10.7452 48 24V24C48 37.2548 37.2548 48 24 48V48C10.7452 48 0 37.2548 0 24V24Z" fill="#8A949E"/>
<g clip-path="url(#clip0_403_85)">
<path d="M24.0004 15.0004C24.0625 15.0004 31.5132 15.0026 33.3763 15.5375C34.4085 15.8336 35.2229 16.704 35.4984 17.81C36.0002 19.8161 36.0004 24.0004 36.0004 24.0004C36.0004 24.0467 35.9974 28.1964 35.4984 30.1898C35.2229 31.2959 34.4086 32.1672 33.3763 32.4633C31.5131 32.9981 24.0624 33.0004 24.0004 33.0004C24.0004 33.0004 16.4957 33.0004 14.6234 32.4633C13.5912 32.1671 12.7768 31.2959 12.5013 30.1898C12.0023 28.1949 12.0004 24.0467 12.0004 24.0004C12.0004 24.0004 11.9995 19.8161 12.5013 17.81C12.7768 16.704 13.5914 15.8337 14.6234 15.5375C16.4943 15.0004 24.0004 15.0004 24.0004 15.0004ZM21.6 27.0004L27.6 24.0004L21.6 21.0004V27.0004Z" fill="white"/>
</g>
<defs>
<clipPath id="clip0_403_85">
<rect width="28.8" height="28.8" fill="white" transform="translate(9.59998 9.6)"/>
</clipPath>
</defs>
</svg>
