<svg width="48" height="48" viewBox="0 0 48 48" fill="none" xmlns="http://www.w3.org/2000/svg">
<path d="M0 24C0 10.7452 10.7452 0 24 0C37.2548 0 48 10.7452 48 24C48 37.2548 37.2548 48 24 48C10.7452 48 0 37.2548 0 24Z" fill="#FF002D"/>
<g clip-path="url(#clip0_2145_58086)">
<path d="M24.0005 15.0004C24.0626 15.0004 31.5134 15.0026 33.3765 15.5375C34.4086 15.8336 35.223 16.704 35.4985 17.8099C36.0004 19.8161 36.0005 24.0004 36.0005 24.0004C36.0005 24.0467 35.9975 28.1963 35.4985 30.1898C35.2231 31.2959 34.4087 32.1671 33.3765 32.4633C31.5132 32.9981 24.0626 33.0004 24.0005 33.0004C24.0005 33.0004 16.4958 33.0004 14.6235 32.4633C13.5913 32.1671 12.7769 31.2959 12.5015 30.1898C12.0025 28.1949 12.0005 24.0467 12.0005 24.0004C12.0005 24.0004 11.9996 19.8161 12.5015 17.8099C12.777 16.704 13.5915 15.8337 14.6235 15.5375C16.4944 15.0004 24.0005 15.0004 24.0005 15.0004ZM21.6001 27.0004L27.6001 24.0004L21.6001 21.0004V27.0004Z" fill="white"/>
</g>
<defs>
<clipPath id="clip0_2145_58086">
<rect width="28.8" height="28.8" fill="white" transform="translate(9.6001 9.59998)"/>
</clipPath>
</defs>
</svg>
