<svg width="24" height="24" viewBox="0 0 24 24" fill="none" xmlns="http://www.w3.org/2000/svg">
<path d="M18 20.5V22H6V20.5H18ZM20.5 18V6C20.5 4.61929 19.3807 3.5 18 3.5H6C4.61929 3.5 3.5 4.61929 3.5 6V18C3.5 19.3807 4.61929 20.5 6 20.5V22L5.79395 21.9951C3.7488 21.8913 2.10865 20.2512 2.00488 18.2061L2 18V6C2 3.79086 3.79086 2 6 2H18C20.2091 2 22 3.79086 22 6V18C22 20.14 20.3194 21.8879 18.2061 21.9951L18 22V20.5C19.3807 20.5 20.5 19.3807 20.5 18Z" fill="#0672B9"/>
<path fill-rule="evenodd" clip-rule="evenodd" d="M12.812 9.13831H16.896V10.7643H15.4448C15.8987 11.3567 16.1704 12.081 16.1704 12.8864C16.1703 15.0571 14.1972 16.639 11.9985 16.6393C9.79961 16.6393 7.8258 15.0573 7.82568 12.8864C7.82568 12.081 8.09727 11.3568 8.55127 10.7643H7.1001V9.13831H11.1851V7.36096H12.812V9.13831ZM11.9058 10.7643C10.4447 10.8062 9.45166 11.8328 9.45166 12.8864C9.45178 13.9619 10.4871 15.0123 11.9985 15.0123C13.5096 15.012 14.5433 13.9618 14.5435 12.8864C14.5435 11.8331 13.5518 10.8066 12.0913 10.7643H11.9058Z" fill="#0672B9"/>
</svg>
