<svg width="24" height="24" viewBox="0 0 24 24" fill="none" xmlns="http://www.w3.org/2000/svg">
<path d="M18.7043 13.6346C18.2555 13.1748 17.3975 12.9413 16.1537 12.9413C15.5412 12.9413 14.8497 12.9988 14.0942 13.1119C13.6849 12.7356 13.2861 12.291 12.9078 11.7899C12.6378 11.4333 12.3885 11.0641 12.1655 10.6887C12.604 9.37288 12.826 8.30406 12.826 7.51188C12.826 6.53917 12.4224 5.5 11.2896 5.5C10.918 5.5 10.5369 5.71466 10.3413 6.0344C9.85863 6.82659 10.0515 8.45585 10.823 10.1148C10.5548 10.8764 10.2622 11.6183 9.90379 12.4401C9.60273 13.1344 9.24333 13.8448 8.86418 14.5005C7.70884 14.9442 5.25329 16.021 5.01902 17.2111C4.95034 17.5677 5.06888 17.9045 5.3549 18.1596C5.44334 18.2396 5.78109 18.5 6.35594 18.5C7.83492 18.5 9.31013 16.5456 10.3027 14.8625C10.8672 14.6792 11.443 14.5131 12.0159 14.3685C12.6444 14.2095 13.2522 14.0792 13.8251 13.9813C15.3916 15.2864 16.7831 15.484 17.4812 15.484C18.4399 15.484 18.7984 15.087 18.9291 14.7538C19.1013 14.3181 18.9339 13.8673 18.7052 13.6338L18.7043 13.6346ZM17.6844 14.3209C17.6317 14.5804 17.3513 14.7475 16.9675 14.7475C16.8621 14.7475 16.753 14.7349 16.6439 14.7089C15.9392 14.5481 15.2636 14.2229 14.5901 13.7164C15.2213 13.6248 15.7538 13.605 16.1095 13.605C16.514 13.605 16.8847 13.6319 17.1218 13.6796C17.4266 13.7397 17.7701 13.9005 17.6844 14.3209ZM10.9481 6.37301C11.0243 6.24727 11.1476 6.17092 11.2756 6.17092C11.6339 6.17092 11.7121 6.58318 11.7121 6.92808C11.7149 7.47775 11.5408 8.35436 11.2426 9.32438C10.6414 7.80379 10.7252 6.73767 10.9481 6.37301ZM13.0499 13.297C12.6434 13.3787 12.2229 13.473 11.7977 13.5808C11.4919 13.658 11.1814 13.7424 10.8709 13.8332C11.0356 13.5107 11.187 13.1919 11.3198 12.8883C11.4938 12.4868 11.6575 12.0862 11.807 11.6937C11.9388 11.8914 12.0753 12.0835 12.2154 12.2677C12.4911 12.6332 12.7884 12.9817 13.0837 13.2898L13.0499 13.297ZM8.50008 15.378C7.55361 16.833 6.62219 17.7528 6.07745 17.7528C5.97679 17.7528 5.89399 17.724 5.83471 17.6701C5.72558 17.5732 5.68513 17.4671 5.71053 17.3378C5.81402 16.8169 6.89221 16.0642 8.50102 15.3789L8.50008 15.378Z" fill="#ED1E23"/>
<path d="M18 20.5V22H6V20.5H18ZM20.5 18V6C20.5 4.61929 19.3807 3.5 18 3.5H6C4.61929 3.5 3.5 4.61929 3.5 6V18C3.5 19.3807 4.61929 20.5 6 20.5V22L5.79395 21.9951C3.7488 21.8913 2.10865 20.2512 2.00488 18.2061L2 18V6C2 3.79086 3.79086 2 6 2H18C20.2091 2 22 3.79086 22 6V18C22 20.14 20.3194 21.8879 18.2061 21.9951L18 22V20.5C19.3807 20.5 20.5 19.3807 20.5 18Z" fill="#ED1E23"/>
</svg>
