<svg width="24" height="24" viewBox="0 0 24 24" fill="none" xmlns="http://www.w3.org/2000/svg">
<path fill-rule="evenodd" clip-rule="evenodd" d="M12.0013 4.99984C8.13531 4.99984 5.0013 8.13384 5.0013 11.9998C5.0013 15.8658 8.13531 18.9998 12.0013 18.9998C15.8673 18.9998 19.0013 15.8658 19.0013 11.9998C19.0013 8.13384 15.8673 4.99984 12.0013 4.99984ZM3.66797 11.9998C3.66797 7.39746 7.39893 3.6665 12.0013 3.6665C16.6037 3.6665 20.3346 7.39746 20.3346 11.9998C20.3346 16.6022 16.6037 20.3332 12.0013 20.3332C7.39893 20.3332 3.66797 16.6022 3.66797 11.9998ZM11.168 8.33317C11.168 8.05703 11.3918 7.83317 11.668 7.83317H12.3346C12.6108 7.83317 12.8346 8.05703 12.8346 8.33317V13.1665C12.8346 13.4426 12.6108 13.6665 12.3346 13.6665H11.668C11.3918 13.6665 11.168 13.4426 11.168 13.1665V8.33317ZM11.668 14.4998C11.3918 14.4998 11.168 14.7237 11.168 14.9998V15.6665C11.168 15.9426 11.3918 16.1665 11.668 16.1665H12.3346C12.6108 16.1665 12.8346 15.9426 12.8346 15.6665V14.9998C12.8346 14.7237 12.6108 14.4998 12.3346 14.4998H11.668Z" fill="#33363D"/>
</svg>
