<svg width="24" height="24" viewBox="0 0 24 24" fill="none" xmlns="http://www.w3.org/2000/svg">
<path fill-rule="evenodd" clip-rule="evenodd" d="M12.0013 4.99984C8.13531 4.99984 5.0013 8.13384 5.0013 11.9998C5.0013 15.8658 8.13531 18.9998 12.0013 18.9998C15.8673 18.9998 19.0013 15.8658 19.0013 11.9998C19.0013 8.13384 15.8673 4.99984 12.0013 4.99984ZM3.66797 11.9998C3.66797 7.39746 7.39893 3.6665 12.0013 3.6665C16.6037 3.6665 20.3346 7.39746 20.3346 11.9998C20.3346 16.6022 16.6037 20.3332 12.0013 20.3332C7.39893 20.3332 3.66797 16.6022 3.66797 11.9998Z" fill="#33363D"/>
<path fill-rule="evenodd" clip-rule="evenodd" d="M10.9474 9.4043C10.7342 9.68387 10.6673 10.0163 10.6673 10.1667H9.33398C9.33398 9.76143 9.47547 9.13558 9.88724 8.5957C10.3242 8.02283 11.04 7.58333 12.084 7.58333C13.1025 7.58333 13.8246 7.97746 14.238 8.58203C14.6261 9.14969 14.6883 9.82753 14.5644 10.3272C14.3605 11.1492 13.8648 11.7781 13.5272 12.0801C13.4332 12.1643 13.352 12.2359 13.2815 12.2981C13.0219 12.527 12.9064 12.6288 12.8197 12.7667C12.7427 12.8893 12.666 13.0899 12.666 13.6667H11.3327C11.3327 12.9934 11.4167 12.4933 11.6909 12.0572C11.8905 11.7396 12.1889 11.4795 12.4682 11.236C12.526 11.1856 12.583 11.1359 12.6381 11.0865C12.8193 10.9244 13.1434 10.5175 13.2703 10.0062C13.3117 9.83913 13.2905 9.55864 13.1374 9.33464C13.0094 9.14754 12.7321 8.91667 12.084 8.91667C11.4613 8.91667 11.1355 9.15772 10.9474 9.4043Z" fill="#33363D"/>
<path d="M11.1673 15.3333C11.1673 14.8731 11.5404 14.5 12.0007 14.5C12.4609 14.5 12.834 14.8731 12.834 15.3333C12.834 15.7936 12.4609 16.1667 12.0007 16.1667C11.5404 16.1667 11.1673 15.7936 11.1673 15.3333Z" fill="#33363D"/>
</svg>
