<svg width="28" height="28" viewBox="0 0 28 28" fill="none" xmlns="http://www.w3.org/2000/svg">
<path d="M0 8C0 3.58172 3.58172 0 8 0H20C24.4183 0 28 3.58172 28 8V20C28 24.4183 24.4183 28 20 28H8C3.58172 28 0 24.4183 0 20V8Z" fill="#063A74"/>
<path d="M13.5098 16.1748H14.9453L16.0732 17.6396C16.8643 16.9512 17.3623 15.7866 17.3623 14.1973C17.3623 11.458 15.8682 9.97852 13.9492 9.97852C12.0303 9.97852 10.5361 11.458 10.5361 14.1973C10.5361 16.9365 12.0303 18.416 13.9492 18.416C14.3447 18.416 14.7256 18.3501 15.0771 18.2256L13.5098 16.1748ZM18.6367 14.1973C18.6367 16.1748 17.9482 17.7202 16.835 18.6504L18.2119 20.4961H16.7764L15.8535 19.251C15.2749 19.5146 14.6377 19.6465 13.9492 19.6465C11.2246 19.6465 9.26172 17.5518 9.26172 14.1973C9.26172 10.8428 11.2246 8.74805 13.9492 8.74805C16.6592 8.74805 18.6367 10.8428 18.6367 14.1973Z" fill="white"/>
</svg>
