<svg width="128" height="128" viewBox="0 0 128 128" fill="none" xmlns="http://www.w3.org/2000/svg">
<path d="M8 96C8 78.3269 22.3269 64 40 64C57.6731 64 72 78.3269 72 96V104.615C72 106.485 70.4847 108 68.6154 108H11.3846C9.51535 108 8 106.485 8 104.615V96Z" fill="url(#paint0_linear_5020_4823)"/>
<path d="M70 96C70 79.4315 56.5685 66 40 66C23.4315 66 10 79.4315 10 96V104.615C10 105.38 10.6201 106 11.3848 106H68.6152C69.3799 106 70 105.38 70 104.615V96ZM74 104.615C74 107.589 71.5891 110 68.6152 110H11.3848C8.41093 110 6 107.589 6 104.615V96C6 77.2223 21.2223 62 40 62C58.7777 62 74 77.2223 74 96V104.615Z" fill="url(#paint1_linear_5020_4823)"/>
<path d="M56 36C56 44.8366 48.8366 52 40 52C31.1634 52 24 44.8366 24 36C24 27.1634 31.1634 20 40 20C48.8366 20 56 27.1634 56 36Z" fill="url(#paint2_linear_5020_4823)"/>
<path d="M54 36C54 28.268 47.732 22 40 22C32.268 22 26 28.268 26 36C26 43.732 32.268 50 40 50C47.732 50 54 43.732 54 36ZM58 36C58 45.9411 49.9411 54 40 54C30.0589 54 22 45.9411 22 36C22 26.0589 30.0589 18 40 18C49.9411 18 58 26.0589 58 36Z" fill="url(#paint3_linear_5020_4823)"/>
<path d="M102 36C102 28.268 95.732 22 88 22C80.268 22 74 28.268 74 36C74 43.732 80.268 50 88 50C95.732 50 102 43.732 102 36ZM106 36C106 45.9411 97.9411 54 88 54C78.0589 54 70 45.9411 70 36C70 26.0589 78.0589 18 88 18C97.9411 18 106 26.0589 106 36Z" fill="white"/>
<path d="M118 108V96C118 79.4315 104.569 66 88 66C71.4315 66 58 79.4315 58 96V108C58 109.105 57.1046 110 56 110C54.8954 110 54 109.105 54 108V96C54 77.2223 69.2223 62 88 62C106.778 62 122 77.2223 122 96V108C122 109.105 121.105 110 120 110C118.895 110 118 109.105 118 108Z" fill="white"/>
<path d="M102 108V90C102 88.8954 102.895 88 104 88C105.105 88 106 88.8954 106 90V108C106 109.105 105.105 110 104 110C102.895 110 102 109.105 102 108Z" fill="white"/>
<path d="M22 108V90C22 88.8954 22.8954 88 24 88C25.1046 88 26 88.8954 26 90V108C26 109.105 25.1046 110 24 110C22.8954 110 22 109.105 22 108Z" fill="white"/>
<defs>
<linearGradient id="paint0_linear_5020_4823" x1="40" y1="64" x2="40" y2="108" gradientUnits="userSpaceOnUse">
<stop stop-color="#05B3B6"/>
<stop offset="1" stop-color="#33C5C7"/>
</linearGradient>
<linearGradient id="paint1_linear_5020_4823" x1="40" y1="62" x2="40" y2="110" gradientUnits="userSpaceOnUse">
<stop stop-color="#05B3B6"/>
<stop offset="1" stop-color="#33C5C7"/>
</linearGradient>
<linearGradient id="paint2_linear_5020_4823" x1="40" y1="20" x2="40" y2="52" gradientUnits="userSpaceOnUse">
<stop stop-color="#05B3B6"/>
<stop offset="1" stop-color="#33C5C7"/>
</linearGradient>
<linearGradient id="paint3_linear_5020_4823" x1="40" y1="18" x2="40" y2="54" gradientUnits="userSpaceOnUse">
<stop stop-color="#05B3B6"/>
<stop offset="1" stop-color="#33C5C7"/>
</linearGradient>
</defs>
</svg>
